<svg width="21" height="23" viewBox="0 0 21 23" fill="none" xmlns="http://www.w3.org/2000/svg">
<path d="M19.8358 16.8964C19.5529 16.7324 19.2223 16.6731 18.9008 16.7289C18.5793 16.7846 18.2872 16.9518 18.0747 17.2017C17.9309 17.3727 17.7782 17.5392 17.6168 17.7012C13.5604 21.7875 6.50571 20.9856 3.62925 15.3001C3.03592 14.123 2.72663 12.8208 2.72663 11.4999C2.72663 10.179 3.03592 8.87681 3.62925 7.69965C6.50571 2.01413 13.5604 1.21525 17.6109 5.3045C17.7694 5.46457 17.9201 5.62859 18.063 5.79657C18.2777 6.05017 18.5736 6.21985 18.8993 6.27616C19.225 6.33247 19.56 6.27186 19.8461 6.10486C20.0114 6.00888 20.1541 5.87766 20.2641 5.72032C20.3741 5.56298 20.4488 5.38331 20.483 5.19383C20.5173 5.00434 20.5102 4.8096 20.4623 4.62317C20.4144 4.43673 20.3268 4.26309 20.2056 4.11433C19.9928 3.85792 19.7654 3.60892 19.5291 3.37326C14.2458 -1.96248 5.08069 -0.962032 1.25763 6.36127C0.432706 7.94759 0.00170898 9.71255 0.00170898 11.5043C0.00170898 13.2961 0.432706 15.0611 1.25763 16.6474C5.08069 23.9692 14.2516 24.9652 19.5291 19.6354C19.7649 19.3973 19.9884 19.1502 20.1998 18.8943C20.3212 18.7446 20.4089 18.57 20.4567 18.3826C20.5046 18.1952 20.5116 17.9995 20.4771 17.8091C20.4426 17.6188 20.3675 17.4383 20.257 17.2801C20.1465 17.122 20.0033 16.9901 19.8373 16.8934L19.8358 16.8964Z" fill="white"/>
<path d="M15.687 7.24774C14.8543 6.4069 13.7934 5.83432 12.6385 5.6024C11.4835 5.37047 10.2864 5.48962 9.19856 5.94477C8.11067 6.39992 7.18085 7.17063 6.52667 8.15945C5.87248 9.14827 5.52332 10.3108 5.52332 11.5C5.52332 12.6892 5.87248 13.8518 6.52667 14.8406C7.18085 15.8294 8.11067 16.6001 9.19856 17.0553C10.2864 17.5104 11.4835 17.6296 12.6385 17.3976C13.7934 17.1657 14.8543 16.5931 15.687 15.7523C16.8035 14.6244 17.4307 13.0949 17.4307 11.5C17.4307 9.90518 16.8035 8.37563 15.687 7.24774ZM13.7234 13.7692C13.2789 14.2182 12.7124 14.524 12.0958 14.6479C11.4792 14.7718 10.84 14.7083 10.2591 14.4653C9.67827 14.2223 9.18178 13.8108 8.83248 13.2829C8.48317 12.7549 8.29673 12.1342 8.29673 11.4993C8.29673 10.8643 8.48317 10.2436 8.83248 9.71567C9.18178 9.18773 9.67827 8.77625 10.2591 8.53328C10.84 8.29031 11.4792 8.22676 12.0958 8.35066C12.7124 8.47456 13.2789 8.78036 13.7234 9.22937C14.3195 9.83141 14.6543 10.6479 14.6543 11.4993C14.6543 12.3506 14.3195 13.1672 13.7234 13.7692Z" fill="white"/>
</svg>
