<svg width="19" height="23" viewBox="0 0 19 23" fill="none" xmlns="http://www.w3.org/2000/svg">
<path d="M9.50977 5.25C8.73718 5.25 7.98195 5.4791 7.33957 5.90832C6.69719 6.33755 6.19652 6.94762 5.90086 7.66139C5.60521 8.37517 5.52785 9.16058 5.67857 9.91832C5.8293 10.6761 6.20133 11.3721 6.74763 11.9184C7.29393 12.4647 7.98996 12.8367 8.74769 12.9874C9.50543 13.1382 10.2908 13.0608 11.0046 12.7652C11.7184 12.4695 12.3285 11.9688 12.7577 11.3264C13.1869 10.6841 13.416 9.92883 13.416 9.15625C13.4134 8.12104 13.0011 7.12897 12.2691 6.39696C11.537 5.66496 10.545 5.25258 9.50977 5.25ZM9.50977 11.5C9.04622 11.5 8.59308 11.3625 8.20765 11.105C7.82222 10.8475 7.52182 10.4814 7.34442 10.0532C7.16703 9.6249 7.12062 9.15365 7.21105 8.69901C7.30148 8.24436 7.52471 7.82675 7.85248 7.49897C8.18026 7.17119 8.59788 6.94797 9.05252 6.85753C9.50717 6.7671 9.97842 6.81351 10.4067 6.99091C10.8349 7.1683 11.201 7.4687 11.4585 7.85413C11.7161 8.23956 11.8535 8.6927 11.8535 9.15625C11.8509 9.77706 11.6032 10.3717 11.1642 10.8107C10.7252 11.2497 10.1306 11.4974 9.50977 11.5ZM9.50977 0.5625C7.23136 0.565085 5.047 1.47133 3.43592 3.08241C1.82484 4.69349 0.9186 6.87784 0.916016 9.15625C0.916016 12.2227 2.33203 15.4746 5.01758 18.5508C6.22476 19.9442 7.58045 21.2016 9.06055 22.3008C9.19361 22.3894 9.3499 22.4367 9.50977 22.4367C9.66963 22.4367 9.82592 22.3894 9.95898 22.3008C11.4434 21.2033 12.8025 19.9457 14.0117 18.5508C16.6875 15.4746 18.1035 12.2227 18.1035 9.15625C18.1009 6.87784 17.1947 4.69349 15.5836 3.08241C13.9725 1.47133 11.7882 0.565085 9.50977 0.5625ZM9.50977 20.6797C7.89844 19.4102 2.47852 14.7422 2.47852 9.15625C2.47852 7.29145 3.21931 5.50302 4.53792 4.18441C5.85654 2.86579 7.64496 2.125 9.50977 2.125C11.3746 2.125 13.163 2.86579 14.4816 4.18441C15.8002 5.50302 16.541 7.29145 16.541 9.15625C16.541 14.7422 11.1211 19.4102 9.50977 20.6797Z" fill="white"/>
</svg>
